<svg width="62" height="61" viewBox="0 0 62 61" fill="none" xmlns="http://www.w3.org/2000/svg">
<rect width="62" height="61" rx="15.8298" fill="url(#paint0_linear_4006_1982)" style=""/>
<path fill-rule="evenodd" clip-rule="evenodd" d="M31.6378 13.4528C31.2188 13.3666 30.7867 13.3666 30.3677 13.4528C29.8834 13.5524 29.4505 13.7949 29.1064 13.9876L29.0126 14.04L17.3488 20.5199C17.3166 20.5378 17.2833 20.5561 17.2493 20.5749C16.885 20.7755 16.4269 21.0278 16.0752 21.4095C15.771 21.7396 15.5409 22.1307 15.4001 22.5568C15.2372 23.0497 15.2392 23.5727 15.2407 23.9886C15.2408 24.0274 15.2409 24.0654 15.2409 24.1023V36.8963C15.2409 36.9332 15.2408 36.9711 15.2407 37.01C15.2392 37.4259 15.2372 37.9489 15.4001 38.4417C15.5409 38.8679 15.771 39.259 16.0752 39.589C16.4269 39.9707 16.885 40.223 17.2493 40.4237C17.2833 40.4425 17.3166 40.4608 17.3488 40.4787L29.0126 46.9585L29.1064 47.0109C29.4505 47.2037 29.8834 47.4462 30.3677 47.5458C30.7867 47.6319 31.2188 47.6319 31.6378 47.5458C32.1221 47.4461 32.555 47.2037 32.8992 47.0109L32.993 46.9585L44.6567 40.4787C44.671 40.4708 44.6854 40.4628 44.7001 40.4547C44.7185 40.4445 44.7372 40.4342 44.7562 40.4237C45.1206 40.223 45.5786 39.9707 45.9304 39.589C46.2345 39.259 46.4647 38.8679 46.6055 38.4417C46.7683 37.9489 46.7664 37.4259 46.7649 37.01C46.7647 36.9711 46.7646 36.9332 46.7646 36.8963V24.1023C46.7646 24.0654 46.7647 24.0274 46.7649 23.9886C46.7664 23.5727 46.7683 23.0497 46.6055 22.5568C46.4647 22.1307 46.2345 21.7396 45.9304 21.4095C45.5786 21.0278 45.1206 20.7755 44.7562 20.5749L44.755 20.5742C44.7214 20.5557 44.6886 20.5376 44.6567 20.5199L32.993 14.04L32.8992 13.9876C32.555 13.7949 32.1221 13.5524 31.6378 13.4528ZM30.5435 16.7957C30.7824 16.663 30.9043 16.596 30.9952 16.5521L31.0028 16.5485L31.0103 16.5521C31.1013 16.596 31.2232 16.663 31.4621 16.7957L41.9428 22.6183L31.0027 28.6962L20.0627 22.6184L30.5435 16.7957ZM18.3933 25.2971L29.4265 31.4267L29.4266 43.5824L18.8797 37.723C18.6276 37.5829 18.4989 37.5107 18.4086 37.4531L18.401 37.4483L18.4004 37.4392C18.394 37.3323 18.3933 37.1847 18.3933 36.8963V25.2971Z" fill="white" style="fill:white;fill-opacity:1;"/>
<defs>
<linearGradient id="paint0_linear_4006_1982" x1="36.1944" y1="86.3894" x2="-24.7976" y2="24.3976" gradientUnits="userSpaceOnUse">
<stop stop-color="#FB432C" style="stop-color:#FB432C;stop-color:color(display-p3 0.9843 0.2627 0.1725);stop-opacity:1;"/>
<stop offset="1" stop-color="#FF591E" style="stop-color:#FF591E;stop-color:color(display-p3 1.0000 0.3490 0.1176);stop-opacity:1;"/>
</linearGradient>
</defs>
</svg>
